<svg width="5" height="14" viewBox="0 0 5 14" fill="none" xmlns="http://www.w3.org/2000/svg">
<path d="M1.48587 8.00907C1.43798 8.31587 1.48589 8.48225 1.49514 8.9944C1.71048 9.00143 2.15022 9.05524 2.61624 9.33868C2.86017 8.85516 3.0208 8.70094 3.1133 8.3888C3.71811 6.34974 4.34371 0.0498602 4.15127 0.00534195C3.94846 -0.0426118 1.81783 5.9072 1.48587 8.00907ZM1.31292 9.57117C0.654501 9.85207 0.317972 10.6082 0.543033 11.8001C0.767621 12.9923 0.318658 13.822 0.168931 13.8873C1.06659 13.6768 3.71908 12.905 2.58667 9.97578C1.94992 9.51225 1.31292 9.57117 1.31292 9.57117Z" fill="#4C4C4C"/>
</svg>
