<svg width="5" height="14" viewBox="0 0 5 14" fill="none" xmlns="http://www.w3.org/2000/svg">
<path d="M1.48588 8.0089C1.43799 8.3157 1.4859 8.48208 1.49515 8.99423C1.71049 9.00126 2.15023 9.05507 2.61625 9.33851C2.86018 8.85499 3.02081 8.70077 3.11331 8.38863C3.71812 6.34957 4.34372 0.0496892 4.15128 0.005171C3.94847 -0.0427828 1.81784 5.90703 1.48588 8.0089ZM1.31293 9.571C0.654515 9.8519 0.317986 10.608 0.543047 11.7999C0.767635 12.9921 0.318672 13.8218 0.168945 13.8871C1.0666 13.6766 3.71909 12.9048 2.58668 9.97561C1.94993 9.51208 1.31293 9.571 1.31293 9.571Z" fill="white"/>
</svg>
