<svg width="29" height="29" viewBox="0 0 29 29" fill="none" xmlns="http://www.w3.org/2000/svg">
<path d="M17.0647 14.5003L28.4686 3.09594C29.1771 2.388 29.1771 1.23934 28.4686 0.531406C27.7601 -0.177135 26.6127 -0.177135 25.9042 0.531406L14.5003 11.9358L3.09581 0.531406C2.3873 -0.177135 1.23989 -0.177135 0.531384 0.531406C-0.177128 1.23934 -0.177128 2.388 0.531384 3.09594L11.9359 14.5003L0.531384 25.9047C-0.177128 26.6126 -0.177128 27.7613 0.531384 28.4692C0.885639 28.8229 1.34992 29 1.8136 29C2.27727 29 2.74155 28.8229 3.09581 28.4686L14.5003 17.0642L25.9042 28.4686C26.2584 28.8229 26.7227 29 27.1864 29C27.6501 29 28.1144 28.8229 28.4686 28.4686C29.1771 27.7607 29.1771 26.612 28.4686 25.9041L17.0647 14.5003Z" fill="white"/>
</svg>
