<svg width="20" height="18" viewBox="0 0 20 18" fill="none" xmlns="http://www.w3.org/2000/svg">
<path d="M19.8858 1.05441C19.7747 0.735679 19.6096 0.48024 19.3909 0.288243C19.1721 0.0961465 18.9306 0 18.6668 0H10.6667C10.2639 0 9.93059 0.206085 9.66669 0.618648L0.333131 15.019C0.159532 15.2814 0.0536132 15.5884 0.0154125 15.94C-0.0228612 16.2916 0.0101585 16.6267 0.114362 16.9456C0.225425 17.2642 0.390341 17.5196 0.609147 17.7117C0.827953 17.9037 1.06931 18 1.33321 18H9.33339C9.73627 18 10.0696 17.7942 10.3335 17.3814L19.667 2.98089C19.8403 2.71836 19.9463 2.41145 19.9844 2.05986C20.023 1.70823 19.9898 1.37324 19.8858 1.05441ZM9.3335 16.1999H1.33321L4.8333 10.7999H12.8336L9.3335 16.1999Z" fill="white"/>
</svg>
