<svg width="21" height="21" viewBox="0 0 21 21" fill="none" xmlns="http://www.w3.org/2000/svg">
<path d="M9.84373 19.6875H1.31252V1.31247H9.84373C10.206 1.31247 10.5 1.01845 10.5 0.656235C10.5 0.294024 10.2059 0 9.84373 0H0.65623C0.294022 0 0 0.293969 0 0.656235V20.3438C0 20.706 0.294022 21 0.65623 21H9.84367C10.2059 21 10.4999 20.706 10.4999 20.3438C10.5 19.9815 10.2059 19.6875 9.84373 19.6875Z" transform="translate(0 21) scale(1 -1)" fill="white"/>
<path d="M16.2139 4.78727L11.6858 0.19417C11.4292 -0.0650506 11.0138 -0.064396 10.7578 0.19417C10.5012 0.452736 10.5012 0.872716 10.7578 1.13128L14.1703 4.59301H0.65623C0.293967 4.59301 0 4.88966 0 5.25585C0 5.62204 0.294022 5.91869 0.65623 5.91869H14.1703L10.7578 9.38042C10.5012 9.63964 10.5012 10.059 10.7578 10.3175C11.0144 10.5768 11.4298 10.5768 11.6858 10.3175L16.2132 5.72443C16.4665 5.46914 16.4691 5.04191 16.2139 4.78727Z" transform="translate(4.5957 15.7451) scale(1 -1)" fill="white"/>
</svg>
