<svg width="23" height="23" viewBox="0 0 23 23" fill="none" xmlns="http://www.w3.org/2000/svg">
<path d="M19.7056 11.9192C19.426 11.6396 19.0867 11.5 18.6872 11.5H7.66651V6.70841C7.66651 5.65007 8.04093 4.74677 8.78967 3.99803C9.53847 3.24944 10.4418 2.87507 11.5001 2.87507C12.5582 2.87507 13.4617 3.24939 14.2102 3.99803C14.959 4.74677 15.3334 5.65013 15.3334 6.70841C15.3334 6.96787 15.4282 7.19245 15.6177 7.3821C15.8076 7.57181 16.0323 7.66668 16.2915 7.66668H17.2503C17.5096 7.66668 17.7342 7.57181 17.9241 7.3821C18.1132 7.19245 18.2084 6.96787 18.2084 6.70841C18.2084 4.86142 17.552 3.28196 16.2394 1.96914C14.9267 0.656277 13.3468 0 11.5001 0C9.65317 0 8.07345 0.656277 6.76058 1.96909C5.44792 3.28175 4.79159 4.86137 4.79159 6.70836V11.5H4.31248C3.9133 11.5 3.57381 11.6399 3.29427 11.9191C3.01472 12.1984 2.875 12.538 2.875 12.9374V21.5625C2.875 21.962 3.01477 22.3014 3.29427 22.5808C3.57381 22.8601 3.9133 22.9999 4.31248 22.9999H18.6872C19.0867 22.9999 19.4263 22.8601 19.7056 22.5808C19.9849 22.3014 20.1249 21.962 20.1249 21.5625V12.9374C20.1251 12.5381 19.9852 12.1988 19.7056 11.9192Z" fill="white"/>
</svg>
