<svg width="436" height="103" viewBox="0 0 436 103" fill="none" xmlns="http://www.w3.org/2000/svg">
<path d="M31.1743 37.8182C29.673 39.4811 29.3049 40.6748 27.3373 43.8031C28.6095 44.6963 31.0515 46.7586 32.745 50.3108C36.1279 48.3556 37.7069 48.0593 39.4986 46.5404C51.2058 36.6204 79.8725 1.06058 78.8867 0.031529C77.8518 -1.05926 41.4825 26.441 31.1743 37.8182ZM23.9585 46.5651C18.8739 45.6595 13.8548 48.8949 10.5046 56.9791C7.15032 65.0633 1.16172 68.2986 0 68.101C6.2504 70.3773 25.3125 76.1976 30.0493 54.0401C28.0368 48.7261 23.9585 46.5651 23.9585 46.5651Z" transform="translate(332 39.4561) rotate(-30)" fill="#2C2C2C"/>
<path d="M99.3875 13.5H108.356L102.981 45C102.377 49.4167 100.731 52.9896 98.0437 55.7188C95.3562 58.4271 92.0646 59.7396 88.1687 59.6562C84.3979 59.5729 81.5437 58.2708 79.6062 55.75C77.6687 53.2083 76.8146 49.8021 77.0437 45.5312L86.1062 45.5625L86.0437 47.5312C86.0021 48.8854 86.2312 49.9688 86.7312 50.7812C87.2312 51.5938 87.9916 52.0104 89.0125 52.0312C91.4708 52.0938 93.0958 50.0729 93.8875 45.9688L99.3875 13.5ZM127.337 55.9062C125.212 58.4479 122.733 59.6979 119.9 59.6562C117.692 59.6354 115.921 58.8958 114.587 57.4375C113.254 55.9583 112.483 53.9479 112.275 51.4062C112.15 49.9271 112.16 48.4792 112.306 47.0625L115.962 25.1875H124.587L120.931 47.1875L120.837 48.7188C120.754 49.7604 120.9 50.6042 121.275 51.25C121.671 51.8958 122.254 52.2292 123.025 52.25C124.733 52.3125 126.296 51.4479 127.712 49.6562L131.962 25.1875H140.681L134.806 59H126.775L127.337 55.9062ZM160.662 49.7188C160.871 48.2604 159.735 46.9583 157.256 45.8125C154.777 44.6667 152.912 43.5938 151.662 42.5938C150.433 41.5729 149.527 40.4479 148.944 39.2188C148.381 37.9896 148.131 36.5938 148.194 35.0312C148.34 31.9688 149.59 29.4479 151.944 27.4688C154.319 25.4688 157.215 24.4896 160.631 24.5312C164.006 24.6146 166.662 25.625 168.6 27.5625C170.558 29.4792 171.517 32.0208 171.475 35.1875H162.85C162.912 33.7083 162.715 32.6667 162.256 32.0625C161.819 31.4375 161.121 31.125 160.162 31.125C159.162 31.125 158.308 31.4688 157.6 32.1562C156.912 32.8229 156.485 33.6354 156.319 34.5938C156.069 35.9479 157.121 37.1562 159.475 38.2188C161.85 39.2812 163.558 40.1667 164.6 40.875C167.704 42.9375 169.152 45.7604 168.944 49.3438C168.819 51.4479 168.162 53.2917 166.975 54.875C165.808 56.4375 164.235 57.6354 162.256 58.4688C160.298 59.3021 158.173 59.6875 155.881 59.625C152.59 59.5417 149.902 58.4688 147.819 56.4062C145.735 54.3438 144.715 51.7083 144.756 48.5L152.975 48.5312C152.912 50.1562 153.173 51.3229 153.756 52.0312C154.34 52.7396 155.246 53.0938 156.475 53.0938C157.558 53.0938 158.475 52.8125 159.225 52.25C159.996 51.6667 160.475 50.8229 160.662 49.7188ZM193.425 16.875L191.987 25.1875H196.362L195.206 31.8438H190.831L187.956 48.875L187.862 49.875C187.779 51.2708 188.362 51.9896 189.612 52.0312C189.967 52.0521 190.675 52 191.737 51.875L190.956 58.8125C189.665 59.3333 188.165 59.5938 186.456 59.5938C183.935 59.5521 182.04 58.6458 180.769 56.875C179.498 55.1042 179.008 52.6875 179.3 49.625L182.206 31.8438H178.394L179.55 25.1875H183.331L184.8 16.875H193.425ZM216.919 59L224.794 13.5L236.012 13.5312C239.325 13.6146 242.117 14.4792 244.387 16.125C246.679 17.7708 248.315 20.0521 249.294 22.9688C250.294 25.8854 250.565 29.1458 250.106 32.75L249.106 39.4062C248.19 45.5312 245.971 50.3229 242.45 53.7812C238.95 57.2396 234.544 58.9792 229.231 59H216.919ZM232.45 21.1562L227.2 51.375L229.419 51.4375C232.523 51.4375 234.929 50.5417 236.637 48.75C238.346 46.9375 239.492 44.0312 240.075 40.0312L241.137 32.6562C241.429 30.2604 241.544 28.5104 241.481 27.4062C241.377 25.3229 240.846 23.7812 239.887 22.7812C238.929 21.7812 237.512 21.25 235.637 21.1875L232.45 21.1562ZM275.931 33.6875L273.181 33.375C270.869 33.3333 269.004 34.4271 267.587 36.6562L263.681 59H255.025L260.9 25.1875L268.994 25.1562L268.306 28.875C269.327 27.25 270.327 26.1146 271.306 25.4688C272.285 24.8021 273.337 24.4688 274.462 24.4688C275.129 24.4688 276.015 24.625 277.119 24.9375L275.931 33.6875ZM294.35 59C294.183 58.2917 294.1 57.4167 294.1 56.375C292.183 58.5625 289.996 59.6562 287.537 59.6562C284.933 59.6146 282.84 58.6562 281.256 56.7812C279.694 54.9062 278.975 52.5729 279.1 49.7812C279.287 46.1979 280.683 43.3958 283.287 41.375C285.892 39.3333 289.392 38.3125 293.787 38.3125H296.319L296.725 35.5625L296.819 34.1562C296.819 32.3438 296.09 31.4375 294.631 31.4375C292.61 31.375 291.381 32.6667 290.944 35.3125L282.35 35.375C282.537 32.1667 283.871 29.5521 286.35 27.5312C288.829 25.4896 291.85 24.4896 295.412 24.5312C298.767 24.6146 301.329 25.6771 303.1 27.7188C304.892 29.7396 305.621 32.4167 305.287 35.75L302.537 52.9375L302.412 54.5938C302.329 56.0521 302.475 57.3333 302.85 58.4375L302.819 59H294.35ZM289.912 52.75C291.433 52.7917 292.85 52.125 294.162 50.75L295.694 43.5938H293.819C292.152 43.6771 290.808 44.2396 289.787 45.2812C288.767 46.3229 288.152 47.6354 287.944 49.2188L287.912 50.4062C287.912 51.0729 288.079 51.625 288.412 52.0625C288.767 52.5 289.267 52.7292 289.912 52.75ZM337.425 44.0938L343.644 25.1875H352.081L339.425 59H332.269L331.05 39.5625L323.05 59H315.831L314.894 25.1875H323.019L322.612 43.9688L330.206 25.1875H336.362L337.425 44.0938Z" transform="translate(0 28)" fill="#2C2C2C"/>
</svg>
