<svg width="23" height="23" viewBox="0 0 23 23" fill="none" xmlns="http://www.w3.org/2000/svg">
<g clip-path="url(#clip0)">
<path d="M6.35582 14.0011C6.35582 13.2926 6.49984 12.617 6.76007 12.0022C6.25645 11.7143 5.67426 11.5488 5.0538 11.5488C3.1514 11.5488 1.60371 13.0965 1.60371 14.9989C1.60371 16.1101 2.13235 17.0997 2.95083 17.7311C1.21109 18.5304 0 20.2893 0 22.3259V22.9998H4.53787V22.3503C4.53787 20.9415 4.95839 19.5834 5.75395 18.4226C6.16445 17.8236 6.66003 17.2976 7.22326 16.8584C6.66515 16.0243 6.35582 15.034 6.35582 14.0011Z" fill="white"/>
<path d="M20.0493 17.7321C20.8677 17.1007 21.3964 16.1111 21.3964 14.9998C21.3964 13.0975 19.8487 11.5498 17.9464 11.5498C17.3259 11.5498 16.7437 11.7153 16.24 12.0032C16.5003 12.618 16.6443 13.2935 16.6443 14.002C16.6443 15.035 16.335 16.0254 15.7769 16.8594C16.3401 17.2986 16.8356 17.8247 17.2462 18.4236C18.0417 19.5844 18.4622 20.9425 18.4622 22.3513V23.0008H23.0001V22.327C23.0001 20.2903 21.789 18.5315 20.0493 17.7321Z" fill="white"/>
<path d="M13.6175 17.1514C14.6297 16.4688 15.2966 15.3117 15.2966 14.0016C15.2966 11.9082 13.5935 10.2051 11.5 10.2051C9.40652 10.2051 7.7034 11.9082 7.7034 14.0016C7.7034 15.3116 8.37031 16.4688 9.38244 17.1514C7.33324 17.989 5.8855 20.0039 5.8855 22.3509V23.0004H17.1144V22.3509C17.1144 20.0039 15.6667 17.989 13.6175 17.1514Z" fill="white"/>
</g>
<defs>
<clipPath id="clip0">
<rect width="23" height="23" fill="white"/>
</clipPath>
</defs>
</svg>
